<svg width="269" height="215" viewBox="0 0 269 215" fill="none" xmlns="http://www.w3.org/2000/svg">
<g clip-path="url(#clip0_3_220)">
<path d="M269 68.3633C269 71.2679 268.036 74.1918 266.053 76.6357L245.054 102.516C242.398 105.789 238.489 107.492 234.542 107.492C231.596 107.492 228.628 106.542 226.148 104.586L201.75 85.3701V194.844C201.75 205.976 192.717 215 181.575 215H87.425C76.2867 215 67.25 205.972 67.25 194.844V85.3701L42.4936 104.603C40.371 106.534 37.4036 107.122 34.4572 107.122C30.5113 107.122 26.6016 105.418 23.9452 102.146L2.94724 76.6357C0.96336 74.2002 -0.00012207 71.2607 -0.00012207 68.3633C-0.00012207 64.474 1.72778 60.6199 5.04783 57.9996L61.79 13.2359C67.1659 9.02412 73.8489 6.71875 80.3217 6.71875H94.8225C98.0589 25.7664 114.535 40.3125 134.5 40.3125C154.465 40.3125 170.954 25.7664 174.173 6.71875H188.296C195.168 6.71875 201.838 9.02412 207.206 13.2569L263.948 58.0206C267.277 60.6367 269 64.5 269 68.3633Z" fill="black"/>
</g>
<defs>
<clipPath id="clip0_3_220">
<rect width="269" height="215" fill="white"/>
</clipPath>
</defs>
</svg>
