<?xml version="1.0" standalone="no"?>
<!DOCTYPE svg PUBLIC "-//W3C//DTD SVG 20010904//EN"
 "http://www.w3.org/TR/2001/REC-SVG-20010904/DTD/svg10.dtd">
<svg version="1.0" xmlns="http://www.w3.org/2000/svg"
 width="414.000000pt" height="380.000000pt" viewBox="0 0 414.000000 380.000000"
 preserveAspectRatio="xMidYMid meet">
<metadata>
Created by potrace 1.16, written by Peter Selinger 2001-2019
</metadata>
<g transform="translate(0.000000,380.000000) scale(0.100000,-0.100000)"
fill="#000000" stroke="none">
<path d="M1651 3725 c-36 -8 -89 -27 -118 -41 -51 -26 -153 -115 -153 -134 0
-5 -10 -20 -23 -34 -27 -29 -46 -100 -39 -145 l4 -31 30 41 c16 23 38 44 49
46 10 3 19 9 19 14 0 5 17 20 38 34 37 24 39 25 92 10 30 -9 87 -20 125 -26
39 -6 73 -16 77 -24 4 -7 21 -18 37 -25 32 -13 45 -42 28 -59 -9 -9 -8 -17 1
-31 7 -11 8 -20 4 -20 -14 0 -7 -38 11 -58 9 -10 14 -21 11 -25 -3 -3 8 -18
25 -34 17 -15 43 -52 59 -82 15 -30 37 -58 48 -62 30 -10 93 36 101 73 7 38
50 78 82 78 68 0 103 -62 90 -160 -12 -82 -22 -112 -53 -153 -28 -36 -33 -53
-14 -41 8 5 9 -6 5 -41 -8 -54 24 -159 95 -318 22 -48 40 -96 41 -107 1 -10 4
-17 7 -15 3 2 12 -5 19 -17 7 -11 8 -18 3 -15 -5 4 -8 -2 -7 -11 1 -20 24 -62
25 -47 1 6 5 1 9 -10 8 -19 9 -18 21 8 12 23 11 29 -3 40 -18 14 -60 107 -52
115 3 3 11 0 17 -6 7 -7 20 -12 29 -12 18 0 89 -75 89 -94 0 -6 7 -20 15 -30
12 -16 17 -17 30 -6 9 8 27 10 50 6 34 -7 35 -6 24 18 -13 28 -9 50 44 215 49
156 29 273 -60 351 -37 32 -152 92 -204 105 -22 5 -25 11 -23 43 2 20 6 48 10
62 15 54 16 151 0 203 -8 28 -23 80 -32 115 -16 61 -53 119 -134 214 -38 44
-123 93 -200 114 -81 22 -271 27 -349 9z"/>
<path d="M1726 2261 c-10 -11 -22 -39 -27 -63 -5 -24 -16 -56 -23 -73 -23 -48
-28 -106 -15 -160 11 -43 14 -47 19 -25 3 14 17 30 31 37 21 10 28 26 43 88
17 71 17 102 1 187 -6 29 -10 31 -29 9z"/>
<path d="M1630 2224 c-14 -8 -24 -18 -22 -24 1 -5 -1 -9 -5 -9 -22 4 -44 -2
-39 -10 3 -5 -3 -20 -14 -34 -11 -14 -20 -32 -20 -40 0 -24 -36 -26 -71 -5
l-33 20 17 -24 c10 -12 25 -36 35 -52 9 -15 25 -38 34 -50 l17 -21 1 22 c0 27
16 38 24 17 3 -9 6 -47 6 -84 0 -38 4 -71 9 -75 12 -7 19 18 20 75 1 64 11
122 25 140 10 13 9 13 -6 1 -17 -13 -26 -2 -11 13 4 3 8 16 10 27 3 17 35 97
50 122 5 9 4 8 -27 -9z"/>
<path d="M2967 2042 c5 -21 -12 -39 -22 -22 -3 5 -11 10 -17 10 -6 0 -8 -3 -5
-7 7 -6 -35 -41 -41 -35 -2 2 -10 -4 -16 -14 -8 -11 -20 -15 -31 -11 -13 5
-16 3 -11 -8 3 -9 0 -15 -10 -15 -10 0 -14 -6 -11 -14 4 -9 -2 -17 -14 -21
-10 -4 -19 -13 -19 -21 0 -8 -7 -14 -15 -14 -8 0 -15 -4 -15 -9 0 -6 -13 -24
-30 -42 -31 -35 -70 -108 -70 -134 0 -8 -5 -15 -11 -15 -5 0 -8 -4 -4 -10 3
-5 -3 -18 -15 -30 -22 -22 -27 -50 -9 -50 14 0 -17 -50 -42 -68 -10 -7 -16
-19 -13 -27 4 -8 2 -15 -4 -15 -5 0 -12 -9 -15 -21 -4 -13 -10 -18 -17 -14 -9
6 -10 -1 -5 -24 5 -25 3 -31 -10 -31 -9 0 -14 -4 -11 -9 4 -5 0 -11 -6 -14
-10 -4 -10 -7 -1 -17 10 -11 9 -16 -5 -27 -9 -8 -11 -11 -3 -7 10 5 11 1 5
-17 -5 -13 -8 -39 -8 -57 0 -23 -3 -31 -13 -28 -10 4 -11 -3 -7 -31 3 -20 2
-39 -3 -42 -12 -8 -53 -141 -53 -169 0 -13 -4 -20 -10 -17 -6 3 -10 -4 -10
-17 -1 -58 -11 -145 -19 -173 -5 -16 -12 -48 -16 -70 -3 -22 -15 -79 -27 -128
-16 -70 -18 -90 -8 -102 9 -11 10 -15 1 -15 -8 0 -10 -8 -6 -20 4 -12 1 -27
-5 -35 -7 -8 -10 -28 -8 -45 3 -16 1 -30 -2 -30 -6 0 -11 -33 -25 -160 -1 -14
-6 -24 -11 -23 -5 1 -7 -28 -6 -63 l4 -64 46 0 c30 0 42 3 33 9 -8 5 -9 11 -3
15 6 3 13 2 17 -4 3 -5 11 -10 18 -10 6 0 4 7 -5 17 -16 15 -16 17 0 29 16 12
16 13 -2 14 -15 0 -16 3 -6 15 7 8 19 15 28 15 11 0 10 5 -6 19 -21 18 -21 19
-3 35 10 9 25 14 35 10 9 -3 16 -2 16 4 0 15 -32 24 -40 11 -4 -6 -10 -7 -13
-2 -10 15 21 46 39 39 17 -6 17 -6 1 12 -9 10 -17 23 -17 29 0 6 -6 14 -12 17
-7 4 -3 4 9 2 13 -2 24 2 27 11 10 25 7 35 -8 30 -8 -3 -20 0 -26 8 -9 11 -7
12 10 8 19 -5 21 -2 19 23 -2 16 1 35 5 43 6 9 3 17 -8 23 -23 13 -20 27 9 34
14 3 25 10 25 15 0 5 8 6 18 2 16 -6 16 -5 0 14 -10 11 -18 31 -18 46 0 23 3
25 37 22 24 -2 32 0 22 6 -8 5 -24 9 -36 9 -12 0 -24 4 -27 9 -8 12 20 22 39
15 8 -4 15 -1 15 6 0 6 4 8 10 5 13 -8 1 25 -17 47 -16 18 -2 35 18 22 7 -4
10 -1 7 7 -3 8 -15 13 -26 12 -20 -3 -21 -2 -5 17 13 14 19 16 25 7 5 -8 8 -7
8 6 0 11 -8 17 -21 17 -11 0 -18 -4 -15 -9 3 -5 -1 -12 -10 -15 -12 -5 -15 -2
-10 11 4 9 1 20 -6 25 -8 4 0 5 18 2 19 -4 34 -1 38 5 5 7 1 9 -8 5 -10 -4
-16 -1 -16 9 0 9 -6 17 -12 20 -7 2 -5 3 5 1 15 -2 18 2 13 21 -4 17 -1 25 11
28 16 4 16 5 1 6 -15 1 -15 4 -3 28 11 21 11 29 2 35 -8 5 -5 13 11 26 26 23
28 32 6 32 -14 0 -14 2 -3 16 22 26 21 46 -2 34 -23 -13 -26 2 -4 20 12 10 18
10 30 0 13 -11 14 -9 0 16 -18 34 -3 45 26 18 10 -9 19 -12 19 -7 0 6 -7 14
-16 17 -10 4 -14 12 -10 22 5 12 2 15 -13 11 -13 -3 -21 1 -24 14 -6 21 18 27
26 7 4 -8 8 -4 13 10 4 14 12 21 20 18 25 -10 15 4 -18 24 -18 11 -28 20 -22
20 14 0 13 50 -1 50 -5 0 -3 4 5 9 8 6 17 8 20 6 3 -2 5 19 5 45 0 28 6 55 13
62 11 11 13 9 10 -8 -1 -11 3 -28 11 -37 12 -15 11 -17 -3 -17 -17 0 -22 -15
-7 -24 13 -8 10 -96 -3 -96 -6 0 -3 -7 7 -14 9 -7 17 -17 17 -21 0 -4 -8 -14
-17 -21 -11 -8 -13 -13 -6 -14 7 0 10 -7 7 -15 -4 -8 0 -23 7 -32 11 -13 11
-17 2 -20 -8 -3 -11 -14 -7 -29 3 -13 2 -24 -2 -24 -14 0 -9 -113 4 -118 21
-7 13 -20 -8 -15 -19 5 -19 3 -10 -22 8 -20 7 -31 -1 -41 -7 -8 -9 -31 -6 -54
3 -22 1 -40 -3 -40 -15 0 -6 -114 10 -127 13 -10 12 -11 -5 -7 -18 5 -20 0
-20 -60 0 -36 -5 -67 -10 -70 -14 -5 -11 -62 5 -80 7 -9 17 -13 23 -9 5 3 7 1
4 -5 -4 -5 -16 -8 -27 -5 -21 6 -21 5 -22 -79 0 -21 -4 -38 -9 -38 -5 0 -8
-20 -7 -45 1 -25 7 -45 12 -45 6 0 5 -5 -2 -12 -7 -7 -12 -25 -12 -40 0 -15
-4 -28 -8 -28 -4 0 -7 -15 -7 -32 1 -30 4 -33 34 -36 28 -3 33 -1 27 13 -3 9
-2 14 3 10 5 -3 11 1 14 7 2 7 8 10 12 6 4 -4 3 -14 -4 -22 -10 -12 -6 -14 26
-14 32 0 34 2 16 9 -23 8 -32 29 -13 29 6 0 10 5 10 11 0 8 -5 8 -15 -1 -12
-10 -15 -9 -15 4 0 10 5 14 10 11 6 -3 10 -1 10 4 0 6 -4 11 -8 11 -5 0 -8 10
-8 22 1 17 -4 22 -16 20 -13 -2 -16 2 -12 13 6 14 8 14 25 -1 12 -11 19 -13
19 -5 0 7 5 9 10 6 6 -3 10 -11 10 -16 0 -6 -4 -8 -9 -5 -12 8 -6 -43 6 -55 6
-6 10 6 10 34 0 34 -5 47 -25 62 -16 11 -22 13 -17 4 7 -11 5 -11 -10 1 -18
14 -18 15 3 18 26 4 29 22 5 23 -11 0 -13 3 -5 6 6 2 10 9 6 14 -3 5 -1 9 4 9
6 0 12 -7 16 -15 3 -8 11 -15 18 -15 9 0 9 3 2 8 -6 4 -13 15 -17 25 -4 10
-11 15 -17 12 -5 -3 -10 -2 -10 4 0 5 5 13 11 17 8 5 8 9 -1 14 -8 5 -5 17 10
43 17 29 19 40 10 56 -9 18 -8 21 9 21 27 0 34 28 11 42 -11 7 -20 21 -20 32
0 15 -3 16 -15 6 -9 -7 -17 -11 -20 -8 -6 5 27 33 40 34 6 0 12 9 14 19 3 17
1 18 -13 6 -18 -15 -20 -12 -7 22 6 14 7 28 3 31 -3 4 -7 13 -8 21 -2 13 2 12
27 0 16 -9 29 -20 29 -26 0 -6 -5 -7 -12 -3 -7 5 -8 3 -3 -5 5 -9 10 -10 18
-2 7 7 5 16 -7 30 -9 10 -16 24 -14 31 2 7 -3 15 -10 17 -6 3 -11 -1 -9 -9 2
-7 -1 -3 -7 10 -5 12 -14 22 -18 22 -5 0 -3 9 4 19 7 11 16 17 20 14 5 -2 4
-11 -2 -18 -8 -9 -6 -14 9 -18 14 -3 19 1 19 19 0 13 -4 24 -9 24 -5 0 -9 4
-9 10 0 5 7 7 15 4 8 -4 15 -1 15 4 0 6 -15 9 -32 7 -18 -2 -27 -1 -20 2 10 4
8 8 -5 19 -17 13 -17 13 1 14 15 0 17 6 14 30 -2 16 0 31 5 33 6 2 11 15 11
29 1 15 -2 24 -6 22 -4 -3 -6 9 -5 26 1 16 5 30 10 30 10 0 9 38 -2 42 -5 2
-13 16 -17 32 l-7 30 41 -35 c23 -19 42 -40 42 -47 0 -7 5 -10 10 -7 6 4 3 15
-7 30 -10 12 -21 21 -25 19 -13 -8 -41 47 -40 78 1 36 10 48 22 28 7 -11 10
-8 10 12 0 26 -16 34 -30 16 -3 -4 -6 11 -7 33 -1 27 3 42 13 46 7 3 14 12 14
20 0 8 5 11 12 7 6 -4 4 3 -5 17 -20 27 -22 43 -6 33 8 -5 10 1 7 20 -3 14 -1
26 3 26 5 0 9 -5 9 -12 0 -6 3 -8 6 -5 4 4 2 13 -5 21 -9 11 -9 15 1 19 10 4
9 9 -4 17 -10 6 -15 17 -11 26 5 12 11 10 34 -12 29 -28 39 -64 18 -64 -8 0
-8 -4 -1 -12 5 -7 12 -22 14 -33 3 -11 5 3 5 30 0 40 -5 55 -25 77 -20 22 -26
39 -26 77 -1 32 3 47 10 44 14 -5 27 24 14 32 -6 4 -10 11 -10 17 0 6 9 1 20
-12 24 -27 26 -52 5 -44 -11 5 -13 2 -9 -10 8 -22 16 -20 36 9 16 22 17 25 2
40 -9 8 -17 27 -19 41 -2 24 -2 24 17 7 10 -9 16 -23 14 -30 -3 -8 2 -13 12
-13 15 0 15 -2 2 -10 -8 -5 -11 -10 -6 -10 5 0 3 -7 -4 -15 -7 -8 -10 -27 -7
-42 4 -16 4 -22 1 -15 -7 15 -44 16 -44 1 0 -6 7 -9 15 -5 11 4 15 -1 15 -17
0 -15 -3 -18 -8 -9 -10 15 -52 25 -52 11 0 -5 7 -9 16 -7 10 2 19 -3 22 -11 3
-9 0 -11 -8 -6 -9 5 -11 4 -6 -4 4 -6 11 -9 16 -6 5 3 14 -3 20 -12 7 -12 10
-13 7 -3 -6 20 11 52 24 45 5 -4 9 -11 9 -16 0 -6 -4 -8 -9 -4 -5 3 -12 1 -16
-4 -3 -6 4 -15 15 -21 17 -9 20 -8 21 7 0 10 2 28 3 40 2 14 -2 19 -11 16 -7
-3 -13 0 -13 6 0 6 5 11 11 11 6 0 8 9 4 23 -5 17 -4 19 4 7 9 -12 10 -10 7
10 -2 14 4 33 12 43 15 17 14 18 -11 13 -18 -3 -27 0 -27 8 0 18 -47 59 -54
48 -3 -6 -3 -17 0 -26 3 -9 1 -16 -5 -16 -16 0 -14 35 3 49 11 10 21 5 49 -24
19 -20 38 -32 40 -27 8 12 -38 63 -48 54 -5 -4 -5 -1 -1 6 4 7 1 15 -8 18 -9
3 -16 16 -16 28 0 19 2 19 18 -7 l19 -27 11 22 c6 13 11 18 11 11 1 -6 10 -9
21 -6 11 3 17 9 14 14 -3 5 -10 6 -16 3 -7 -5 -9 -1 -5 9 4 10 2 28 -3 41 -6
16 -5 28 3 36 9 9 9 11 1 7 -7 -4 -15 0 -18 9 -3 8 -2 12 3 9 5 -3 13 0 17 6
3 6 1 15 -6 19 -9 5 -7 11 7 21 22 16 43 47 25 35 -7 -4 -12 -3 -12 2 0 6 7
12 15 16 8 3 15 13 15 21 0 12 6 15 20 10 14 -5 20 -2 20 9 0 10 9 16 26 16
14 0 23 4 20 8 -2 4 5 14 16 21 17 11 20 11 16 -1 -7 -16 63 -19 74 -3 5 6 8
5 8 -2 0 -7 7 -10 15 -7 8 4 15 10 15 15 0 14 -44 28 -51 17 -4 -7 -10 -5 -15
3 -5 8 -19 22 -31 32 -21 18 -21 18 -16 -1z"/>
<path d="M1129 1641 c-8 -17 -22 -34 -31 -37 -23 -7 -23 -32 0 -66 24 -37 59
-62 110 -78 40 -12 45 -12 95 13 28 14 64 30 80 34 32 10 32 6 17 93 -12 74
-30 94 -30 35 0 -21 -6 -38 -14 -41 -8 -3 -11 -15 -8 -29 3 -17 -1 -27 -12
-31 -9 -3 -13 -10 -10 -15 3 -5 -3 -12 -13 -16 -10 -4 -24 -13 -32 -21 -10 -9
-17 -10 -24 -3 -6 6 -21 11 -32 11 -28 0 -65 66 -65 116 0 58 -14 73 -31 35z"/>
<path d="M2970 1509 c0 -5 -4 -8 -9 -5 -5 3 -11 -4 -14 -16 -4 -13 -1 -26 6
-30 8 -5 9 -8 1 -8 -7 0 -11 -7 -10 -16 0 -9 -5 -19 -11 -21 -8 -3 -13 5 -14
19 -1 19 -2 20 -6 4 -3 -12 3 -26 18 -37 14 -11 18 -19 11 -19 -11 0 -13 -15
-9 -69 3 -38 2 -72 -1 -75 -10 -11 -9 -46 2 -46 6 0 5 -4 -3 -9 -11 -7 -11
-14 2 -40 16 -32 11 -41 -11 -19 -9 9 -12 9 -12 0 0 -6 6 -15 14 -19 9 -5 16
-37 20 -98 3 -49 7 -103 10 -118 3 -22 1 -27 -10 -23 -12 5 -12 2 -2 -17 17
-30 17 -49 -2 -65 -8 -8 -10 -11 -3 -7 8 4 15 -5 18 -22 4 -15 10 -37 14 -48
9 -25 3 -57 -10 -50 -5 3 -6 -1 -3 -9 3 -9 10 -13 15 -10 5 3 9 -9 9 -26 0
-22 -4 -29 -12 -25 -7 4 -5 0 5 -8 9 -8 17 -23 17 -34 0 -10 5 -24 12 -31 7
-7 8 -12 2 -12 -6 0 -19 9 -29 20 -10 11 -23 20 -29 20 -6 0 6 -16 26 -35 27
-25 35 -39 31 -55 -3 -13 -11 -19 -19 -16 -18 7 -17 4 1 -40 l15 -36 -28 6
c-15 3 -21 3 -14 0 14 -7 17 -44 2 -44 -5 0 -8 -13 -6 -30 2 -16 -1 -30 -5
-30 -16 0 -9 -38 8 -44 15 -6 15 -8 3 -16 -18 -11 -30 0 -33 28 -1 13 -5 18
-10 13 -5 -5 -4 -17 2 -29 8 -15 8 -21 0 -24 -14 -5 -23 -78 -9 -78 5 0 10 -5
10 -11 0 -5 -4 -7 -10 -4 -5 3 -10 -3 -10 -14 0 -12 -7 -21 -16 -21 -9 0 -12
5 -8 12 12 18 14 88 3 88 -5 0 -9 -9 -9 -21 0 -15 -5 -19 -15 -15 -8 3 -15 1
-15 -4 0 -6 5 -10 10 -10 6 0 10 -7 10 -15 0 -18 -7 -19 -24 -2 -8 8 -10 20
-5 32 4 11 8 32 8 48 1 15 3 27 5 27 2 0 13 3 23 7 17 6 17 5 -1 -15 -11 -12
-17 -25 -13 -28 3 -3 10 4 17 15 6 13 16 19 23 15 9 -5 8 -3 0 7 -15 16 -17
33 -3 24 6 -4 10 6 9 22 0 15 -3 21 -6 13 -7 -18 -52 -60 -66 -60 -14 0 -1 81
15 91 9 6 7 9 -9 9 -13 0 -23 5 -23 11 0 5 5 7 12 3 8 -5 9 -2 5 10 -4 9 -1
25 5 36 9 14 9 22 -1 34 -7 9 -17 13 -22 10 -5 -3 -6 2 -3 10 3 9 11 16 18 16
6 0 0 6 -13 13 -14 6 -26 18 -27 25 -1 7 0 8 3 2 6 -13 53 -13 53 0 0 6 -7 10
-15 10 -9 0 -12 6 -8 17 4 10 2 14 -5 9 -6 -3 -13 -2 -17 4 -3 5 -2 10 3 10
17 0 20 71 3 87 -13 14 -13 17 3 29 17 12 17 14 2 29 -11 12 -13 22 -7 33 6
11 6 24 0 35 -8 13 -6 15 6 11 8 -3 15 -1 15 5 0 6 -3 11 -7 11 -5 0 -9 12
-10 28 -3 47 -11 90 -17 101 -4 5 -2 12 3 15 9 6 9 74 0 91 -3 6 -5 39 -4 75
1 36 -2 70 -7 76 -5 7 -3 14 7 17 11 5 13 12 6 29 -5 13 -6 47 -3 77 3 37 1
52 -6 47 -6 -3 -17 0 -25 8 -12 13 -14 9 -13 -27 1 -22 7 -42 14 -45 7 -2 12
2 12 9 0 7 3 10 6 6 3 -3 2 -11 -2 -19 -4 -7 -10 -31 -12 -53 -2 -22 -8 -43
-14 -46 -6 -4 -7 -9 0 -13 5 -3 8 -29 6 -57 -2 -30 1 -58 8 -66 12 -15 4 -28
-19 -28 -9 0 -18 -7 -20 -15 -4 -12 -3 -12 5 -1 7 10 11 10 17 1 4 -7 2 -16
-6 -21 -11 -6 -10 -9 4 -15 9 -3 17 -13 17 -21 0 -8 -4 -11 -10 -8 -5 3 -10 2
-10 -4 0 -5 6 -12 13 -14 9 -4 8 -6 -2 -6 -11 -1 -11 -4 -1 -16 15 -18 5 -35
-20 -35 -10 0 -22 -4 -25 -10 -3 -5 0 -8 7 -5 14 6 32 -29 43 -83 4 -20 3 -32
-4 -32 -6 0 -11 5 -11 12 0 9 -3 9 -12 -1 -14 -13 -15 -12 39 -49 10 -7 12
-10 6 -7 -7 3 -13 2 -13 -4 0 -5 -3 -16 -6 -25 -4 -10 -1 -16 8 -16 8 0 23 -7
34 -16 18 -14 18 -15 -4 -4 -12 6 -30 10 -39 8 -10 -2 -22 7 -29 20 -9 18 -13
20 -17 8 -4 -9 2 -21 15 -30 12 -9 21 -26 21 -41 0 -19 2 -23 8 -14 7 12 9 11
10 -1 1 -8 2 -30 4 -48 2 -28 1 -31 -13 -20 -12 10 -11 5 3 -20 11 -17 23 -32
27 -32 4 0 8 -5 8 -11 0 -5 -5 -7 -11 -3 -8 4 -9 -3 -4 -26 5 -23 4 -30 -4
-26 -6 4 -9 11 -6 16 6 9 -13 25 -21 17 -6 -6 22 -58 31 -57 8 2 25 -20 25
-32 0 -15 -39 5 -43 23 -3 10 -13 19 -24 19 -17 -1 -17 -1 0 -11 18 -10 24
-39 8 -39 -11 0 17 -61 32 -71 5 -4 1 -12 -9 -18 -18 -10 -18 -12 -1 -25 21
-16 22 -32 1 -40 -10 -4 -13 -13 -9 -28 6 -23 6 -23 -11 -3 -16 20 -16 19 -9
-5 4 -14 4 -22 0 -18 -5 4 -15 2 -23 -4 -11 -10 -17 -9 -28 6 -7 10 -15 24
-17 30 -3 8 -8 7 -18 -2 -11 -10 -10 -12 5 -12 12 0 16 -5 12 -15 -3 -9 0 -15
9 -15 7 0 14 -8 14 -17 2 -54 0 -53 80 -53 l76 0 -25 20 c-14 11 -20 20 -14
20 6 0 19 -9 29 -20 13 -14 31 -20 62 -20 38 0 46 4 63 32 25 41 39 87 47 161
3 31 10 57 14 57 5 0 9 7 9 15 0 8 9 30 20 50 11 20 20 44 20 54 0 10 3 21 7
25 4 4 6 25 4 46 -3 44 0 47 22 25 13 -13 16 -13 21 0 3 8 0 15 -6 15 -6 0 -6
6 3 16 7 9 14 22 15 28 1 7 14 25 28 41 16 17 25 37 23 47 -3 10 -1 18 4 18 5
0 9 -4 9 -10 0 -19 21 -10 60 26 37 35 38 37 23 60 -8 13 -19 21 -25 18 -5 -3
-21 2 -35 12 -19 12 -28 14 -31 5 -3 -9 -7 -9 -17 -1 -11 9 -17 6 -30 -14 -21
-32 -11 -49 25 -41 31 7 43 -4 29 -25 -7 -12 -9 -12 -9 3 0 15 -4 14 -27 -9
-15 -15 -29 -22 -31 -16 -2 6 -10 8 -18 5 -10 -4 -14 3 -14 26 0 22 -5 31 -16
31 -11 0 -15 6 -11 20 3 11 1 23 -4 26 -5 3 -9 0 -9 -6 0 -6 -4 -9 -10 -5 -5
3 -7 12 -3 20 3 9 -1 15 -8 16 -8 0 -5 4 6 9 18 8 19 9 1 9 -11 1 -16 6 -13
15 3 8 1 16 -5 18 -6 2 -11 21 -10 41 1 30 -2 35 -16 31 -10 -4 -13 -3 -6 3
15 12 27 46 12 37 -8 -5 -9 -2 -5 9 4 10 1 17 -5 17 -9 0 -9 3 0 12 7 7 12 17
12 22 0 6 -5 4 -10 -4 -8 -13 -10 -13 -10 2 0 9 5 20 10 23 8 5 8 11 0 20 -6
7 -8 20 -4 29 3 9 2 16 -4 16 -5 0 -9 16 -8 35 1 32 -5 40 -28 36 -5 -1 -2 9
7 23 9 14 14 32 10 41 -3 10 0 21 8 27 11 7 11 11 2 15 -18 7 -16 24 1 17 8
-3 17 0 21 6 4 6 1 11 -6 9 -28 -3 -34 1 -34 25 0 13 3 22 7 20 4 -2 9 0 13 6
3 5 2 10 -3 10 -18 0 -22 44 -5 62 11 13 12 18 3 18 -12 0 -10 32 5 73 4 10 3
17 -4 17 -6 0 -11 -5 -11 -11z"/>
<path d="M1420 1371 c0 -6 -10 -21 -22 -33 -12 -12 -33 -44 -47 -72 -14 -28
-36 -55 -48 -61 -13 -5 -23 -13 -23 -18 0 -4 -4 -5 -10 -2 -5 3 -10 1 -10 -4
0 -6 -11 -11 -25 -11 -14 0 -25 5 -25 10 0 6 -13 10 -30 10 -16 0 -30 4 -30 8
0 5 -9 8 -20 7 -38 -3 -32 -14 12 -26 l45 -12 -32 -46 c-47 -67 -95 -160 -95
-187 0 -12 -5 -26 -12 -30 -7 -5 -8 -2 -3 7 7 12 6 12 -6 0 -11 -10 -11 -15
-1 -18 23 -9 12 -20 -15 -15 -25 5 -27 4 -14 -11 9 -11 10 -17 2 -17 -6 0 -11
-5 -11 -11 0 -5 5 -7 10 -4 6 3 10 1 10 -4 0 -6 -9 -11 -20 -11 -19 0 -24 -14
-23 -57 1 -7 -3 -13 -8 -13 -5 0 -9 -7 -9 -15 0 -8 -9 -15 -19 -15 -22 0 -38
-19 -25 -29 10 -7 18 -41 9 -41 -14 0 -58 36 -66 54 -9 20 -9 20 -5 -1 2 -12
-1 -24 -8 -27 -6 -3 -3 -4 8 -3 12 1 20 -5 22 -20 2 -14 -1 -23 -9 -23 -8 0
-19 -11 -25 -25 -10 -22 -9 -25 7 -25 32 0 32 -13 -1 -42 -20 -17 -26 -25 -14
-21 14 5 17 3 12 -6 -5 -7 -17 -11 -27 -8 -11 3 -17 1 -14 -3 9 -14 -6 -39
-20 -34 -7 3 -16 1 -20 -5 -3 -6 1 -11 11 -11 16 0 16 -1 1 -18 -10 -10 -17
-25 -17 -33 0 -12 2 -11 11 1 8 12 9 10 4 -7 -3 -12 -1 -32 5 -43 13 -25 2
-51 -12 -26 -10 18 -28 22 -28 5 0 -5 4 -7 10 -4 5 3 10 1 10 -4 0 -15 -27
-14 -32 0 -2 7 -12 0 -21 -15 -10 -14 -13 -26 -7 -26 5 0 10 4 10 8 0 4 9 8
19 9 14 1 18 -3 14 -13 -3 -8 0 -14 6 -14 6 0 11 -5 11 -11 0 -8 -4 -9 -13 0
-24 19 -26 1 -5 -35 11 -19 15 -34 9 -34 -6 0 -11 7 -11 15 0 9 -9 15 -22 14
-13 0 -17 -3 -10 -6 14 -6 17 -53 2 -53 -5 0 -10 6 -10 13 0 8 -3 7 -10 -3 -6
-9 -5 -17 2 -21 6 -4 6 -9 1 -12 -6 -4 -20 3 -31 14 -12 11 -22 16 -22 11 0
-23 38 -41 87 -40 29 0 56 -3 62 -6 5 -4 13 -1 17 5 5 8 9 7 14 -2 7 -10 11
-10 23 0 9 7 21 11 29 10 7 -2 30 3 51 10 21 7 44 14 50 15 7 2 31 11 55 21
30 12 41 22 38 32 -3 8 -1 24 5 35 10 19 21 113 20 175 -1 12 4 25 9 28 5 3 7
12 4 19 -3 8 0 17 5 21 6 3 9 11 6 16 -4 5 -3 15 2 22 4 6 9 21 10 32 3 43 10
75 16 82 4 3 7 16 7 29 0 12 7 34 15 50 11 22 12 30 2 36 -9 6 -9 10 1 20 16
16 16 65 0 72 -7 3 -3 3 8 1 22 -6 40 17 28 36 -3 6 -2 15 3 22 5 7 15 31 22
55 9 33 16 42 28 38 13 -5 14 -4 3 9 -10 12 -10 15 3 15 9 0 18 4 21 9 4 5 -3
7 -14 4 -16 -4 -19 -2 -14 11 3 9 10 13 15 10 5 -3 16 11 25 32 12 28 13 39 4
44 -8 5 -8 10 -2 14 10 6 26 -9 35 -34 3 -8 4 3 4 24 -1 24 3 41 11 43 7 3 10
-1 6 -11 -3 -9 -3 -16 0 -16 3 0 11 20 17 45 7 28 17 45 26 45 9 0 13 6 9 15
-3 8 -1 15 5 15 6 0 8 8 4 19 -10 31 3 49 32 43 18 -3 24 -1 19 7 -4 6 -12 9
-17 6 -5 -4 -9 1 -9 9 0 8 -4 18 -10 21 -5 3 -10 1 -10 -4z"/>
<path d="M3418 615 c-3 -4 -2 -20 2 -36 5 -17 5 -31 -1 -35 -6 -3 -8 -12 -5
-19 3 -9 -9 -12 -46 -11 -29 0 -54 -4 -60 -11 -6 -7 -17 -13 -25 -13 -7 0 -16
-6 -19 -14 -3 -8 -15 -11 -31 -8 -19 4 -24 1 -21 -9 3 -9 18 -13 39 -13 113 5
134 6 139 4 4 -2 96 -7 227 -12 18 -1 30 -4 28 -8 -2 -3 5 -7 16 -7 26 -2 24
11 -3 25 -16 7 -18 11 -7 11 19 1 44 45 35 60 -4 6 -16 11 -27 11 -16 0 -19 5
-14 20 4 12 2 20 -5 20 -6 0 -8 -4 -5 -10 3 -5 2 -10 -3 -10 -4 0 -16 16 -26
36 -9 20 -20 34 -23 30 -3 -3 -1 -11 4 -18 6 -7 14 -24 18 -37 6 -20 4 -23 -9
-18 -9 4 -16 2 -16 -3 0 -12 -37 -13 -44 -1 -3 5 4 12 17 16 12 3 17 8 11 11
-6 2 -23 -2 -38 -10 -17 -9 -23 -16 -14 -19 7 -2 10 -8 6 -12 -5 -5 -16 -1
-25 7 -10 9 -24 17 -32 20 -8 2 -20 19 -26 37 -6 18 -13 29 -17 26z"/>
<path d="M1242 413 c-1 -20 -5 -39 -10 -42 -4 -3 -8 -36 -8 -73 1 -63 0 -67
-19 -62 -12 3 -15 2 -9 -3 8 -5 9 -26 3 -67 -4 -33 -6 -63 -4 -66 2 -4 -2 -28
-10 -53 l-14 -47 29 0 c34 0 41 21 39 115 0 33 2 74 5 90 6 28 7 38 5 68 0 6
2 47 5 89 4 42 2 79 -2 82 -5 3 -9 -11 -10 -31z"/>
</g>
</svg>
