<svg width="20" height="22" viewBox="0 0 20 22" fill="none" xmlns="http://www.w3.org/2000/svg">
<g clip-path="url(#clip0_9_47)">
<path d="M16.3668 4.17227C14.5664 2.36758 12.1687 1.375 9.6207 1.375C4.36133 1.375 0.0816406 5.65469 0.0816406 10.9141C0.0816406 12.5941 0.519922 14.2355 1.35352 15.6836L0 20.625L5.05742 19.2973C6.44961 20.0578 8.01797 20.4574 9.61641 20.4574H9.6207C14.8758 20.4574 19.25 16.1777 19.25 10.9184C19.25 8.37031 18.1672 5.97695 16.3668 4.17227ZM9.6207 18.8504C8.19414 18.8504 6.79766 18.468 5.58164 17.7461L5.29375 17.5742L2.29453 18.3605L3.09375 15.4344L2.90469 15.1336C2.10977 13.8703 1.69297 12.4137 1.69297 10.9141C1.69297 6.54414 5.25078 2.98633 9.625 2.98633C11.7434 2.98633 13.7328 3.81133 15.2281 5.31094C16.7234 6.81055 17.643 8.8 17.6387 10.9184C17.6387 15.2926 13.9906 18.8504 9.6207 18.8504ZM13.9691 12.9121C13.7328 12.7918 12.5598 12.216 12.3406 12.1387C12.1215 12.057 11.9625 12.0184 11.8035 12.259C11.6445 12.4996 11.1891 13.0324 11.0473 13.1957C10.9098 13.3547 10.768 13.3762 10.5316 13.2559C9.13086 12.5555 8.21133 12.0055 7.2875 10.4199C7.04258 9.99883 7.53242 10.0289 7.98789 9.11797C8.06523 8.95898 8.02656 8.82148 7.96641 8.70117C7.90625 8.58086 7.4293 7.40781 7.23164 6.93086C7.03828 6.4668 6.84063 6.53125 6.69453 6.52266C6.55703 6.51406 6.39805 6.51406 6.23906 6.51406C6.08008 6.51406 5.82227 6.57422 5.60312 6.81055C5.38398 7.05117 4.76953 7.62695 4.76953 8.8C4.76953 9.97305 5.62461 11.1074 5.74063 11.2664C5.86094 11.4254 7.4207 13.8316 9.81406 14.8672C11.3266 15.5203 11.9195 15.5762 12.6758 15.4645C13.1355 15.3957 14.0852 14.8887 14.2828 14.3301C14.4805 13.7715 14.4805 13.2945 14.4203 13.1957C14.3645 13.0883 14.2055 13.0281 13.9691 12.9121Z" fill="#fff"/>
</g>
<defs>
<clipPath id="clip0_9_47">
<rect width="19.25" height="22" fill="white"/>
</clipPath>
</defs>
</svg>
